<mxfile host="app.diagrams.net" agent="Mozilla/5.0 (Windows NT 10.0; Win64; x64) AppleWebKit/537.36 (KHTML, like Gecko) Chrome/134.0.0.0 Safari/537.36" version="26.1.0">
  <diagram name="Page-1" id="2YBvvXClWsGukQMizWep">
    <mxGraphModel grid="1" page="1" gridSize="10" guides="1" tooltips="1" connect="1" arrows="1" fold="1" pageScale="1" pageWidth="850" pageHeight="1100" math="0" shadow="0">
      <root>
        <mxCell id="0" />
        <mxCell id="1" parent="0" />
        <mxCell id="A_ZYSoHw2GRGKBtcnuzB-1" value="Administrador" style="shape=umlLifeline;perimeter=lifelinePerimeter;whiteSpace=wrap;html=1;container=1;dropTarget=0;collapsible=0;recursiveResize=0;outlineConnect=0;portConstraint=eastwest;newEdgeStyle={&quot;curved&quot;:0,&quot;rounded&quot;:0};participant=umlActor;labelPosition=center;verticalLabelPosition=top;align=center;verticalAlign=bottom;" vertex="1" parent="1">
          <mxGeometry x="340" y="120" width="20" height="480" as="geometry" />
        </mxCell>
        <mxCell id="A_ZYSoHw2GRGKBtcnuzB-12" value="" style="html=1;points=[[0,0,0,0,5],[0,1,0,0,-5],[1,0,0,0,5],[1,1,0,0,-5]];perimeter=orthogonalPerimeter;outlineConnect=0;targetShapes=umlLifeline;portConstraint=eastwest;newEdgeStyle={&quot;curved&quot;:0,&quot;rounded&quot;:0};" vertex="1" parent="A_ZYSoHw2GRGKBtcnuzB-1">
          <mxGeometry x="5" y="330" width="10" height="20" as="geometry" />
        </mxCell>
        <mxCell id="A_ZYSoHw2GRGKBtcnuzB-23" value="" style="html=1;points=[[0,0,0,0,5],[0,1,0,0,-5],[1,0,0,0,5],[1,1,0,0,-5]];perimeter=orthogonalPerimeter;outlineConnect=0;targetShapes=umlLifeline;portConstraint=eastwest;newEdgeStyle={&quot;curved&quot;:0,&quot;rounded&quot;:0};" vertex="1" parent="A_ZYSoHw2GRGKBtcnuzB-1">
          <mxGeometry x="5" y="390" width="10" height="30" as="geometry" />
        </mxCell>
        <mxCell id="A_ZYSoHw2GRGKBtcnuzB-2" value="Sistema" style="shape=umlLifeline;perimeter=lifelinePerimeter;whiteSpace=wrap;html=1;container=1;dropTarget=0;collapsible=0;recursiveResize=0;outlineConnect=0;portConstraint=eastwest;newEdgeStyle={&quot;curved&quot;:0,&quot;rounded&quot;:0};" vertex="1" parent="1">
          <mxGeometry x="640" y="120" width="100" height="480" as="geometry" />
        </mxCell>
        <mxCell id="A_ZYSoHw2GRGKBtcnuzB-6" value="" style="html=1;points=[[0,0,0,0,5],[0,1,0,0,-5],[1,0,0,0,5],[1,1,0,0,-5]];perimeter=orthogonalPerimeter;outlineConnect=0;targetShapes=umlLifeline;portConstraint=eastwest;newEdgeStyle={&quot;curved&quot;:0,&quot;rounded&quot;:0};" vertex="1" parent="A_ZYSoHw2GRGKBtcnuzB-2">
          <mxGeometry x="45" y="200" width="10" height="40" as="geometry" />
        </mxCell>
        <mxCell id="A_ZYSoHw2GRGKBtcnuzB-20" value="" style="html=1;points=[[0,0,0,0,5],[0,1,0,0,-5],[1,0,0,0,5],[1,1,0,0,-5]];perimeter=orthogonalPerimeter;outlineConnect=0;targetShapes=umlLifeline;portConstraint=eastwest;newEdgeStyle={&quot;curved&quot;:0,&quot;rounded&quot;:0};" vertex="1" parent="A_ZYSoHw2GRGKBtcnuzB-2">
          <mxGeometry x="45" y="60" width="10" height="30" as="geometry" />
        </mxCell>
        <mxCell id="A_ZYSoHw2GRGKBtcnuzB-21" value="" style="html=1;points=[[0,0,0,0,5],[0,1,0,0,-5],[1,0,0,0,5],[1,1,0,0,-5]];perimeter=orthogonalPerimeter;outlineConnect=0;targetShapes=umlLifeline;portConstraint=eastwest;newEdgeStyle={&quot;curved&quot;:0,&quot;rounded&quot;:0};" vertex="1" parent="A_ZYSoHw2GRGKBtcnuzB-2">
          <mxGeometry x="45" y="100" width="10" height="30" as="geometry" />
        </mxCell>
        <mxCell id="A_ZYSoHw2GRGKBtcnuzB-22" value="" style="html=1;points=[[0,0,0,0,5],[0,1,0,0,-5],[1,0,0,0,5],[1,1,0,0,-5]];perimeter=orthogonalPerimeter;outlineConnect=0;targetShapes=umlLifeline;portConstraint=eastwest;newEdgeStyle={&quot;curved&quot;:0,&quot;rounded&quot;:0};" vertex="1" parent="A_ZYSoHw2GRGKBtcnuzB-2">
          <mxGeometry x="45" y="150" width="10" height="20" as="geometry" />
        </mxCell>
        <mxCell id="A_ZYSoHw2GRGKBtcnuzB-3" value="Accede a la interfaz de administracion" style="html=1;verticalAlign=bottom;endArrow=block;curved=0;rounded=0;" edge="1" parent="1" target="A_ZYSoHw2GRGKBtcnuzB-2">
          <mxGeometry width="80" relative="1" as="geometry">
            <mxPoint x="349.5" y="180" as="sourcePoint" />
            <mxPoint x="659.5" y="180" as="targetPoint" />
          </mxGeometry>
        </mxCell>
        <mxCell id="A_ZYSoHw2GRGKBtcnuzB-4" value="Selecciona sección a modificar (catalogo, diseño, configuración)" style="html=1;verticalAlign=bottom;endArrow=block;curved=0;rounded=0;" edge="1" parent="1" target="A_ZYSoHw2GRGKBtcnuzB-2">
          <mxGeometry width="80" relative="1" as="geometry">
            <mxPoint x="349.5" y="220" as="sourcePoint" />
            <mxPoint x="659.5" y="220" as="targetPoint" />
          </mxGeometry>
        </mxCell>
        <mxCell id="A_ZYSoHw2GRGKBtcnuzB-5" value="Realiza cambios y envía actualización" style="html=1;verticalAlign=bottom;endArrow=block;curved=0;rounded=0;" edge="1" parent="1">
          <mxGeometry width="80" relative="1" as="geometry">
            <mxPoint x="349.5" y="269.5" as="sourcePoint" />
            <mxPoint x="689.5" y="269.5" as="targetPoint" />
          </mxGeometry>
        </mxCell>
        <mxCell id="A_ZYSoHw2GRGKBtcnuzB-7" value="Valida cambios" style="html=1;align=left;spacingLeft=2;endArrow=block;rounded=0;edgeStyle=orthogonalEdgeStyle;curved=0;rounded=0;" edge="1" parent="1">
          <mxGeometry relative="1" as="geometry">
            <mxPoint x="690" y="290" as="sourcePoint" />
            <Array as="points">
              <mxPoint x="720" y="320" />
            </Array>
            <mxPoint x="695" y="320" as="targetPoint" />
          </mxGeometry>
        </mxCell>
        <mxCell id="A_ZYSoHw2GRGKBtcnuzB-8" value="alt" style="shape=umlFrame;whiteSpace=wrap;html=1;pointerEvents=0;" vertex="1" parent="1">
          <mxGeometry x="300" y="370" width="540" height="200" as="geometry" />
        </mxCell>
        <mxCell id="A_ZYSoHw2GRGKBtcnuzB-9" value="" style="html=1;points=[[0,0,0,0,5],[0,1,0,0,-5],[1,0,0,0,5],[1,1,0,0,-5]];perimeter=orthogonalPerimeter;outlineConnect=0;targetShapes=umlLifeline;portConstraint=eastwest;newEdgeStyle={&quot;curved&quot;:0,&quot;rounded&quot;:0};" vertex="1" parent="1">
          <mxGeometry x="685" y="420" width="10" height="30" as="geometry" />
        </mxCell>
        <mxCell id="A_ZYSoHw2GRGKBtcnuzB-10" value="Aplica modificaciones" style="html=1;align=left;spacingLeft=2;endArrow=block;rounded=0;edgeStyle=orthogonalEdgeStyle;curved=0;rounded=0;" edge="1" parent="1">
          <mxGeometry relative="1" as="geometry">
            <mxPoint x="690" y="390" as="sourcePoint" />
            <Array as="points">
              <mxPoint x="720" y="420" />
            </Array>
            <mxPoint x="695" y="420" as="targetPoint" />
          </mxGeometry>
        </mxCell>
        <mxCell id="A_ZYSoHw2GRGKBtcnuzB-11" value="Muestra mensaje de exito" style="html=1;verticalAlign=bottom;endArrow=block;curved=0;rounded=0;" edge="1" parent="1">
          <mxGeometry width="80" relative="1" as="geometry">
            <mxPoint x="695" y="450" as="sourcePoint" />
            <mxPoint x="350" y="450" as="targetPoint" />
          </mxGeometry>
        </mxCell>
        <mxCell id="A_ZYSoHw2GRGKBtcnuzB-13" value="" style="endArrow=none;dashed=1;html=1;rounded=0;entryX=0;entryY=0.555;entryDx=0;entryDy=0;entryPerimeter=0;exitX=1;exitY=0.555;exitDx=0;exitDy=0;exitPerimeter=0;" edge="1" parent="1" source="A_ZYSoHw2GRGKBtcnuzB-8" target="A_ZYSoHw2GRGKBtcnuzB-8">
          <mxGeometry width="50" height="50" relative="1" as="geometry">
            <mxPoint x="500" y="620" as="sourcePoint" />
            <mxPoint x="550" y="570" as="targetPoint" />
          </mxGeometry>
        </mxCell>
        <mxCell id="A_ZYSoHw2GRGKBtcnuzB-14" value="Muestra mensaje de error&amp;nbsp;" style="endArrow=classic;html=1;rounded=0;labelPosition=center;verticalLabelPosition=top;align=center;verticalAlign=bottom;" edge="1" parent="1">
          <mxGeometry width="50" height="50" relative="1" as="geometry">
            <mxPoint x="690" y="510" as="sourcePoint" />
            <mxPoint x="350" y="510" as="targetPoint" />
          </mxGeometry>
        </mxCell>
        <mxCell id="A_ZYSoHw2GRGKBtcnuzB-15" value="Corrige cambios y reintenta" style="endArrow=classic;html=1;rounded=0;labelPosition=center;verticalLabelPosition=top;align=center;verticalAlign=bottom;" edge="1" parent="1" source="A_ZYSoHw2GRGKBtcnuzB-24">
          <mxGeometry width="50" height="50" relative="1" as="geometry">
            <mxPoint x="349.5" y="540" as="sourcePoint" />
            <mxPoint x="690" y="540" as="targetPoint" />
          </mxGeometry>
        </mxCell>
        <mxCell id="A_ZYSoHw2GRGKBtcnuzB-16" value="[Cambios validos]" style="text;align=center;fontStyle=1;verticalAlign=middle;spacingLeft=3;spacingRight=3;strokeColor=none;rotatable=0;points=[[0,0.5],[1,0.5]];portConstraint=eastwest;html=1;" vertex="1" parent="1">
          <mxGeometry x="380" y="370" width="80" height="26" as="geometry" />
        </mxCell>
        <mxCell id="A_ZYSoHw2GRGKBtcnuzB-17" value="[Cambios inválidos]" style="text;align=center;fontStyle=1;verticalAlign=middle;spacingLeft=3;spacingRight=3;strokeColor=none;rotatable=0;points=[[0,0.5],[1,0.5]];portConstraint=eastwest;html=1;" vertex="1" parent="1">
          <mxGeometry x="330" y="480" width="80" height="26" as="geometry" />
        </mxCell>
        <mxCell id="A_ZYSoHw2GRGKBtcnuzB-18" value="Sistema" style="html=1;whiteSpace=wrap;" vertex="1" parent="1">
          <mxGeometry x="635" y="600" width="110" height="40" as="geometry" />
        </mxCell>
        <mxCell id="A_ZYSoHw2GRGKBtcnuzB-19" value="Administrador" style="shape=umlActor;verticalLabelPosition=bottom;verticalAlign=top;html=1;" vertex="1" parent="1">
          <mxGeometry x="335" y="600" width="30" height="50" as="geometry" />
        </mxCell>
        <mxCell id="A_ZYSoHw2GRGKBtcnuzB-25" value="" style="endArrow=classic;html=1;rounded=0;labelPosition=center;verticalLabelPosition=top;align=center;verticalAlign=bottom;" edge="1" parent="1" target="A_ZYSoHw2GRGKBtcnuzB-24">
          <mxGeometry width="50" height="50" relative="1" as="geometry">
            <mxPoint x="349.5" y="540" as="sourcePoint" />
            <mxPoint x="690" y="540" as="targetPoint" />
          </mxGeometry>
        </mxCell>
        <mxCell id="A_ZYSoHw2GRGKBtcnuzB-24" value="" style="html=1;points=[[0,0,0,0,5],[0,1,0,0,-5],[1,0,0,0,5],[1,1,0,0,-5]];perimeter=orthogonalPerimeter;outlineConnect=0;targetShapes=umlLifeline;portConstraint=eastwest;newEdgeStyle={&quot;curved&quot;:0,&quot;rounded&quot;:0};" vertex="1" parent="1">
          <mxGeometry x="685" y="540" width="10" height="20" as="geometry" />
        </mxCell>
      </root>
    </mxGraphModel>
  </diagram>
</mxfile>
